<svg width="1em" height="1em" viewBox="0 0 34 33" fill="none" xmlns="http://www.w3.org/2000/svg">
<path d="M16.75 5.5C18.2087 5.5 19.6076 6.07946 20.6391 7.11091C21.6705 8.14236 22.25 9.54131 22.25 11C22.25 12.4587 21.6705 13.8576 20.6391 14.8891C19.6076 15.9205 18.2087 16.5 16.75 16.5C15.2913 16.5 13.8924 15.9205 12.8609 14.8891C11.8295 13.8576 11.25 12.4587 11.25 11C11.25 9.54131 11.8295 8.14236 12.8609 7.11091C13.8924 6.07946 15.2913 5.5 16.75 5.5ZM16.75 8.25C16.0207 8.25 15.3212 8.53973 14.8055 9.05546C14.2897 9.57118 14 10.2707 14 11C14 11.7293 14.2897 12.4288 14.8055 12.9445C15.3212 13.4603 16.0207 13.75 16.75 13.75C17.4793 13.75 18.1788 13.4603 18.6945 12.9445C19.2103 12.4288 19.5 11.7293 19.5 11C19.5 10.2707 19.2103 9.57118 18.6945 9.05546C18.1788 8.53973 17.4793 8.25 16.75 8.25ZM16.75 17.875C20.4213 17.875 27.75 19.7037 27.75 23.375V27.5H5.75V23.375C5.75 19.7037 13.0787 17.875 16.75 17.875ZM16.75 20.4875C12.6662 20.4875 8.3625 22.495 8.3625 23.375V24.8875H25.1375V23.375C25.1375 22.495 20.8337 20.4875 16.75 20.4875Z" fill="currentColor"/>
</svg>
