<svg width="34" height="33" viewBox="0 0 34 33" fill="none" xmlns="http://www.w3.org/2000/svg">
<path d="M23.875 24.75C24.6043 24.75 25.3038 25.0397 25.8195 25.5555C26.3353 26.0712 26.625 26.7707 26.625 27.5C26.625 28.2293 26.3353 28.9288 25.8195 29.4445C25.3038 29.9603 24.6043 30.25 23.875 30.25C23.1457 30.25 22.4462 29.9603 21.9305 29.4445C21.4147 28.9288 21.125 28.2293 21.125 27.5C21.125 25.9737 22.3487 24.75 23.875 24.75ZM1.875 2.75H6.37125L7.66375 5.5H28C28.3647 5.5 28.7144 5.64487 28.9723 5.90273C29.2301 6.16059 29.375 6.51033 29.375 6.875C29.375 7.10875 29.3062 7.3425 29.21 7.5625L24.2875 16.4588C23.82 17.2975 22.9125 17.875 21.8813 17.875H11.6375L10.4 20.1163L10.3588 20.2812C10.3588 20.3724 10.395 20.4599 10.4594 20.5243C10.5239 20.5888 10.6113 20.625 10.7025 20.625H26.625V23.375H10.125C9.39565 23.375 8.69618 23.0853 8.18046 22.5695C7.66473 22.0538 7.375 21.3543 7.375 20.625C7.375 20.1437 7.49875 19.69 7.705 19.305L9.575 15.9363L4.625 5.5H1.875V2.75ZM10.125 24.75C10.8543 24.75 11.5538 25.0397 12.0695 25.5555C12.5853 26.0712 12.875 26.7707 12.875 27.5C12.875 28.2293 12.5853 28.9288 12.0695 29.4445C11.5538 29.9603 10.8543 30.25 10.125 30.25C9.39565 30.25 8.69618 29.9603 8.18046 29.4445C7.66473 28.9288 7.375 28.2293 7.375 27.5C7.375 25.9737 8.59875 24.75 10.125 24.75ZM22.5 15.125L26.3225 8.25H8.9425L12.1875 15.125H22.5Z" fill="currentColor"/>
</svg>
