<svg width="1em" height="1em" viewBox="0 0 34 33" fill="none" xmlns="http://www.w3.org/2000/svg">
<path d="M10.375 20.625H13.125C13.125 22.11 15.0088 23.375 17.25 23.375C19.4913 23.375 21.375 22.11 21.375 20.625C21.375 19.1125 19.945 18.5625 16.92 17.8338C14.005 17.105 10.375 16.1975 10.375 12.375C10.375 9.91375 12.3963 7.82375 15.1875 7.1225V4.125H19.3125V7.1225C22.1038 7.82375 24.125 9.91375 24.125 12.375H21.375C21.375 10.89 19.4913 9.625 17.25 9.625C15.0088 9.625 13.125 10.89 13.125 12.375C13.125 13.8875 14.555 14.4375 17.58 15.1662C20.495 15.895 24.125 16.8025 24.125 20.625C24.125 23.0863 22.1038 25.1763 19.3125 25.8775V28.875H15.1875V25.8775C12.3963 25.1763 10.375 23.0863 10.375 20.625Z" fill="currentColor"/>
</svg>
