<svg width="1em" height="1em" viewBox="0 0 33 33" fill="none" xmlns="http://www.w3.org/2000/svg">
<path d="M21.3125 21.3125C22.4538 21.3125 23.375 20.3913 23.375 19.25C23.375 18.1088 22.4538 17.1875 21.3125 17.1875C20.1712 17.1875 19.25 18.1088 19.25 19.25C19.25 20.3913 20.1712 21.3125 21.3125 21.3125ZM9.625 4.125H23.375C24.1043 4.125 24.8038 4.41473 25.3195 4.93046C25.8353 5.44618 26.125 6.14565 26.125 6.875V9.625C26.8543 9.625 27.5538 9.91473 28.0695 10.4305C28.5853 10.9462 28.875 11.6457 28.875 12.375V26.125C28.875 27.6513 27.6513 28.875 26.125 28.875H9.625C6.58625 28.875 4.125 26.4137 4.125 23.375V9.625C4.125 6.58625 6.58625 4.125 9.625 4.125ZM23.375 9.625V6.875H9.625C8.1125 6.875 6.875 8.1125 6.875 9.625V10.3675C7.71031 9.8822 8.65895 9.62607 9.625 9.625H23.375ZM6.875 23.375C6.875 24.1043 7.16473 24.8038 7.68046 25.3195C8.19618 25.8353 8.89565 26.125 9.625 26.125H26.125V12.375H9.625C8.1125 12.375 6.875 13.6125 6.875 15.125V23.375Z" fill="currentColor"/>
</svg>
